<svg xmlns="http://www.w3.org/2000/svg" version="1.1" xmlns:xlink="http://www.w3.org/1999/xlink" xmlns:svgjs="http://svgjs.dev/svgjs" width="1000" height="623" viewBox="0 0 1000 623"><g transform="matrix(1,0,0,1,-0.6060606060606233,0.2522267206477409)"><svg viewBox="0 0 396 247" data-background-color="#111111" preserveAspectRatio="xMidYMid meet" height="623" width="1000" xmlns="http://www.w3.org/2000/svg" xmlns:xlink="http://www.w3.org/1999/xlink"><g id="tight-bounds" transform="matrix(1,0,0,1,0.2400000000000091,-0.09999999999999432)"><svg viewBox="0 0 395.52 247.2" height="247.2" width="395.52"><g><svg></svg></g><g><svg viewBox="0 0 395.52 247.2" height="247.2" width="395.52"><g transform="matrix(1,0,0,1,128.81948135593217,47.215199999999996)"><svg viewBox="0 0 137.88103728813562 152.7696" height="152.7696" width="137.88103728813562"><g><svg viewBox="0 0 137.88103728813562 152.7696" height="152.7696" width="137.88103728813562"><g><svg viewBox="0 0 137.88103728813562 152.7696" height="152.7696" width="137.88103728813562"><g><svg viewBox="0 0 137.88103728813562 152.7696" height="152.7696" width="137.88103728813562"><g id="textblocktransform"><svg viewBox="0 0 137.88103728813562 152.7696" height="152.7696" width="137.88103728813562" id="textblock"><g><svg viewBox="0 0 137.88103728813562 152.7696" height="152.7696" width="137.88103728813562"><g transform="matrix(1,0,0,1,0,0)"><svg width="137.88103728813562" viewBox="3 -35.4 31.950000000000003 35.4" height="152.7696" data-palette-color="#915eff"><path d="M15 0L4 0 4-27.35 3-32.4 4-35.4 22-35.4Q26.05-35.4 28.95-34.1 31.85-32.8 33.4-29.93 34.95-27.05 34.95-22.35L34.95-22.35Q34.95-15.3 31.18-12.23 27.4-9.15 20.5-9.15L20.5-9.15 15-9.15 15-8.05 15.5-3.05 15 0ZM14.5-25.9L15-18.5 17.9-18.5Q19.65-18.5 20.93-18.65 22.2-18.8 22.9-19.58 23.6-20.35 23.6-22.1L23.6-22.1Q23.6-23.95 22.85-24.75 22.1-25.55 20.78-25.73 19.45-25.9 17.7-25.9L17.7-25.9 14.5-25.9Z" opacity="1" transform="matrix(1,0,0,1,0,0)" fill="#915eff" class="undefined-text-0" data-fill-palette-color="primary" id="text-0"></path></svg></g></svg></g></svg></g></svg></g></svg></g></svg></g></svg></g><path d="M84.399 41.215L84.399 0 331.599 0 331.599 247.2 84.399 247.2 84.399 205.985 98.176 205.985 98.176 233.423 317.822 233.423 317.822 13.777 98.176 13.777 98.176 41.215Z" fill="#915eff" stroke="transparent" data-fill-palette-color="primary"></path></svg></g><defs></defs></svg><rect width="395.52" height="247.2" fill="none" stroke="none" visibility="hidden"></rect></g></svg></g></svg>