<svg xmlns="http://www.w3.org/2000/svg" version="1.1" xmlns:xlink="http://www.w3.org/1999/xlink" xmlns:svgjs="http://svgjs.dev/svgjs" width="1000" height="623" viewBox="0 0 1000 623"><g transform="matrix(1,0,0,1,-0.6060606060606233,0.2522267206477409)"><svg viewBox="0 0 396 247" data-background-color="#ffffff" preserveAspectRatio="xMidYMid meet" height="623" width="1000" xmlns="http://www.w3.org/2000/svg" xmlns:xlink="http://www.w3.org/1999/xlink"><g id="tight-bounds" transform="matrix(1,0,0,1,0.2400000000000091,-0.09999999999999432)"><svg viewBox="0 0 395.52 247.2" height="247.2" width="395.52"><g><svg></svg></g><g><svg viewBox="0 0 395.52 247.2" height="247.2" width="395.52"><g transform="matrix(1,0,0,1,39.55199999999999,103.05742982623639)"><svg viewBox="0 0 316.416 41.0851403475272" height="41.0851403475272" width="316.416"><g><svg viewBox="0 0 316.416 41.0851403475272" height="41.0851403475272" width="316.416"><g><svg viewBox="0 0 316.416 41.0851403475272" height="41.0851403475272" width="316.416"><g><svg viewBox="0 0 316.416 41.0851403475272" height="41.0851403475272" width="316.416"><g><svg viewBox="0 0 316.416 41.0851403475272" height="41.0851403475272" width="316.416"><g><svg viewBox="0 0 316.416 41.0851403475272" height="41.0851403475272" width="316.416"><g transform="matrix(1,0,0,1,0,0)"><svg width="316.416" viewBox="3.25 -33.5 261.83 34" height="41.0851403475272" data-palette-color="#0080ff"><path d="M14.75 0L3.25 0 3.25-1.25 7.25-2.1 7.25-30.9 3.25-31.75 3.25-33 13.25-33Q19.15-33 22.73-30.85 26.3-28.7 26.3-24.05L26.3-24.05Q26.3-21.3 24.58-19.18 22.85-17.05 19.78-15.8 16.7-14.55 12.6-14.55L12.6-14.55 10.25-14.55 10.25-2.1 14.75-1.25 14.75 0ZM13.65-31.25L10.25-31.25 10.25-16.3 14-16.3Q16.6-16.3 18.63-17.23 20.65-18.15 21.8-19.83 22.95-21.5 22.95-23.65L22.95-23.65Q22.95-27.65 20.43-29.45 17.9-31.25 13.65-31.25L13.65-31.25ZM42.9 0L32.15 0 32.15-1.25 36.15-2.1 36.15-30.9 32.15-31.75 32.15-33 42.05-33Q47.3-33 50.32-30.83 53.35-28.65 53.35-24.85L53.35-24.85Q53.35-21.85 51.42-19.75 49.5-17.65 46.35-16.65L46.35-16.65 56-1.9 59.3-1.25 59.3 0 53.5 0 43.5-15.65 39.15-15.65 39.15-2.15 42.9-1.25 42.9 0ZM42.4-31.25L42.4-31.25 39.15-31.25 39.15-17.4 42.7-17.4Q45.85-17.4 47.92-19.33 50-21.25 50-24.2L50-24.2Q50-27.45 47.95-29.35 45.9-31.25 42.4-31.25ZM70 0L60.7 0 60.7-1.25 63.34-1.85 76.09-33.25 77.15-33.25 89.84-1.9 92.84-1.25 92.84 0 82.2 0 82.2-1.25 86.45-1.9 82.25-12.5 69.59-12.5 65.55-1.9 70-1.25 70 0ZM75.84-28.7L70.3-14.25 81.55-14.25 75.84-28.7ZM107.19 0.5L107.19 0.5Q104.29 0.5 102.24-0.1 100.19-0.7 97.99-1.8L97.99-1.8 97.49-9.5 98.39-9.5 101.24-3.15Q102.94-1.9 104.54-1.48 106.14-1.05 107.84-1.05L107.84-1.05Q111.19-1.05 112.89-2.83 114.59-4.6 114.59-7.8L114.59-7.8Q114.59-10.2 113.47-11.55 112.34-12.9 110.27-13.95 108.19-15 105.39-16.4L105.39-16.4Q103.19-17.5 101.72-18.6 100.24-19.7 99.49-21.18 98.74-22.65 98.74-24.85L98.74-24.85Q98.74-27 100.07-28.98 101.39-30.95 103.49-32.23 105.59-33.5 107.99-33.5L107.99-33.5Q110.19-33.5 112.02-32.95 113.84-32.4 115.79-31.4L115.79-31.4 116.29-23.9 115.39-23.9 113.19-29.85Q111.94-31 110.74-31.5 109.54-32 107.94-32L107.94-32Q104.89-32 103.24-30.25 101.59-28.5 101.59-26L101.59-26Q101.59-24.1 102.37-22.8 103.14-21.5 104.74-20.45 106.34-19.4 108.79-18.2L108.79-18.2Q111.79-16.75 113.74-15.43 115.69-14.1 116.62-12.4 117.54-10.7 117.54-8.1L117.54-8.1Q117.54-5.6 116.02-3.68 114.49-1.75 112.14-0.63 109.79 0.5 107.19 0.5ZM134.74 0L123.54 0 123.54-1.25 127.44-2.1 127.44-30.9 123.54-31.75 123.54-33 134.74-33 134.74-31.75 130.44-30.9 130.44-17.9 149.34-17.9 149.34-30.9 145.04-31.75 145.04-33 156.24-33 156.24-31.75 152.34-30.9 152.34-2.1 156.24-1.25 156.24 0 145.04 0 145.04-1.25 149.34-2.1 149.34-16.15 130.44-16.15 130.44-2.1 134.74-1.25 134.74 0ZM170.44 0L161.14 0 161.14-1.25 163.79-1.85 176.54-33.25 177.59-33.25 190.29-1.9 193.29-1.25 193.29 0 182.64 0 182.64-1.25 186.89-1.9 182.69-12.5 170.04-12.5 165.99-1.9 170.44-1.25 170.44 0ZM176.29-28.7L170.74-14.25 181.99-14.25 176.29-28.7ZM208.63 0L198.19 0 198.19-1.25 202.09-2.1 202.09-30.9 198.19-31.75 198.19-33 204.74-33 225.09-5.4 225.09-30.9 220.78-31.75 220.78-33 230.88-33 230.88-31.75 226.99-30.9 226.99 0.25 225.88 0.25 204.09-28.8 204.09-2.25 208.63-1.25 208.63 0ZM257.23 0L244.23 0 244.23-1.25 249.23-2.1 249.23-31.25 239.48-31.25 237.38-23.9 236.38-23.9 236.38-33 265.08-33 265.08-23.9 264.08-23.9 261.98-31.25 252.23-31.25 252.23-2.1 257.23-1.25 257.23 0Z" opacity="1" transform="matrix(1,0,0,1,0,0)" fill="#0080ff" class="undefined-text-0" data-fill-palette-color="primary" id="text-0"></path></svg></g></svg></g></svg></g></svg></g></svg></g></svg></g></svg></g><g mask="url(#a8a6d6bc-f5c8-49e2-85cd-5dbe322f4556)"><g transform="matrix(4.372444444444445, 0, 0, 4.372444444444445, 0.9999999999999716, 33.937287071908926)"><svg xmlns="http://www.w3.org/2000/svg" xmlns:xlink="http://www.w3.org/1999/xlink" version="1.1" x="0" y="0" viewBox="5 29.49387475885969 90 41.012625348283166" enable-background="new 0 0 100 100" xml:space="preserve" height="41.012625348283166" width="90" class="icon-none" data-fill-palette-color="accent" id="none"><g fill="#010c80" data-fill-palette-color="accent"><path d="M23.943 30.807L5 50.001l18.942 19.192c1.728 1.751 4.53 1.751 6.258 0.002 1.729-1.75 1.73-4.587 0.002-6.338L18.193 50.695l-3.624 2.289 15.634-15.841c0.864-0.875 1.295-2.021 1.295-3.168 0-1.147-0.433-2.295-1.297-3.17C28.473 29.056 25.671 29.057 23.943 30.807z" fill="#010c80" data-fill-palette-color="accent"></path><path d="M76.057 30.808L95 50.001 76.058 69.193c-1.728 1.751-4.53 1.751-6.258 0.002-1.729-1.75-1.73-4.587-0.002-6.338l12.009-12.161 3.624 2.289L69.796 37.144c-0.864-0.875-1.295-2.021-1.295-3.168 0-1.147 0.433-2.295 1.297-3.17C71.527 29.056 74.329 29.057 76.057 30.808z" fill="#010c80" data-fill-palette-color="accent"></path><path d="M60.899 32.352c-0.419-1.068-1.241-1.978-2.366-2.476-2.249-0.997-4.857 0.028-5.825 2.288l-13.82 32.062c-0.484 1.13-0.467 2.355-0.048 3.422 0.419 1.068 1.241 1.978 2.366 2.476 2.249 0.997 4.857-0.028 5.825-2.288l13.82-32.062C61.335 34.644 61.318 33.419 60.899 32.352z" fill="#010c80" data-fill-palette-color="accent"></path></g></svg></g></g></svg></g><defs><mask id="a8a6d6bc-f5c8-49e2-85cd-5dbe322f4556"><rect width="640" height="400" fill="white"></rect><rect width="348.05760000000004" height="60.48357153289287" fill="black" x="145.97119999999998" y="169.75821423355356" id="transform-me" transform="matrix(1,0,0,1,-122.24000000000001,-76.4)"></rect></mask></defs></svg><rect width="395.52" height="247.2" fill="none" stroke="none" visibility="hidden"></rect></g></svg></g></svg>