<svg xmlns="http://www.w3.org/2000/svg" version="1.1" xmlns:xlink="http://www.w3.org/1999/xlink" xmlns:svgjs="http://svgjs.dev/svgjs" width="1000" height="623" viewBox="0 0 1000 623"><g transform="matrix(1,0,0,1,-0.6060606060606233,0.2522267206477409)"><svg viewBox="0 0 396 247" data-background-color="#111111" preserveAspectRatio="xMidYMid meet" height="623" width="1000" xmlns="http://www.w3.org/2000/svg" xmlns:xlink="http://www.w3.org/1999/xlink"><g id="tight-bounds" transform="matrix(1,0,0,1,0.2400000000000091,-0.09999999999999432)"><svg viewBox="0 0 395.52 247.2" height="247.2" width="395.52"><g><svg></svg></g><g><svg viewBox="0 0 395.52 247.2" height="247.2" width="395.52"><g transform="matrix(1,0,0,1,148.96011299435028,65.92)"><svg viewBox="0 0 97.59977401129943 115.35999999999999" height="115.35999999999999" width="97.59977401129943"><g><svg viewBox="0 0 97.59977401129943 115.35999999999999" height="115.35999999999999" width="97.59977401129943"><g><svg viewBox="0 0 97.59977401129943 115.35999999999999" height="115.35999999999999" width="97.59977401129943"><g id="textblocktransform"><svg viewBox="0 0 97.59977401129943 115.35999999999999" height="115.35999999999999" width="97.59977401129943" id="textblock"><g><svg viewBox="0 0 97.59977401129943 115.35999999999999" height="115.35999999999999" width="97.59977401129943"><g transform="matrix(1,0,0,1,0,0)"><svg width="97.59977401129943" viewBox="3 -35.4 29.950000000000003 35.4" height="115.35999999999999" data-palette-color="#915eff"><path d="M13 0L4 0 4-27.35 3-32.4 4-35.4 20-35.4Q23.65-35.4 26.58-34.27 29.5-33.15 31.23-30.48 32.95-27.8 32.95-23.1L32.95-23.1Q32.95-18.4 31.1-15.68 29.25-12.95 25.98-11.8 22.7-10.65 18.5-10.65L18.5-10.65 13-10.65 13-8.05 13.5-3.05 13 0ZM12.5-27.4L13-18.5 17.9-18.5Q20.5-18.5 22.05-19.48 23.6-20.45 23.6-23.1L23.6-23.1Q23.6-24.95 22.85-25.88 22.1-26.8 20.78-27.1 19.45-27.4 17.7-27.4L17.7-27.4 12.5-27.4Z" opacity="1" transform="matrix(1,0,0,1,0,0)" fill="#915eff" class="undefined-text-0" data-fill-palette-color="primary" id="text-0"></path></svg></g></svg></g></svg></g></svg></g><g></g></svg></g></svg></g><g mask="url(#91783c56-f2ba-4119-8012-ded369c45f96)"><g transform="matrix(3.1844155844155844, 0, 0, 3.1844155844155844, 58.60103896103894, 1)"><svg xmlns="http://www.w3.org/2000/svg" xmlns:xlink="http://www.w3.org/1999/xlink" version="1.1" x="0" y="0" viewBox="6.3 11.5 87.4 77" style="enable-background:new 0 0 100 100;" xml:space="preserve" height="77" width="87.4" class="icon-none" data-fill-palette-color="accent" id="none"><path d="M72.3 12.3L72.3 12.3 72.3 12.3l-0.4-0.8H28.2L6.3 50l21.8 38.5h43.7L93.7 50 72.3 12.3zM33.3 25.3L9.9 47.7l18.6-32.8L33.3 25.3zM70.7 14.8l6.4 35.7L36.9 25.8 70.7 14.8zM35.5 27.3l41 25.2-41 23.3V27.3zM77 54.5l-7.2 30.8-32.6-8.1L77 54.5zM33.5 75L9.9 50.5l23.6-22.7V75zM33.2 77.6l-4.6 7.7L11.5 55.1 33.2 77.6zM35 78.6l31.4 7.9H30.2L35 78.6zM79.3 53.3l11.6-2.5L72.1 84 79.3 53.3zM90.7 48.9l-11.4 2.5-5.9-33.1L90.7 48.9zM35 24.3l-5-10.8h38.2L35 24.3z" fill="#ffffff" data-fill-palette-color="accent"></path></svg></g></g></svg></g><defs><mask id="91783c56-f2ba-4119-8012-ded369c45f96"><rect width="640" height="400" fill="white"></rect><rect width="107.35975141242939" height="169.82745472" fill="black" x="266.3201242937853" y="115.08627264" id="transform-me" transform="matrix(1,0,0,1,-122.24000000000001,-76.4)"></rect></mask></defs></svg><rect width="395.52" height="247.2" fill="none" stroke="none" visibility="hidden"></rect></g></svg></g></svg>