<svg xmlns="http://www.w3.org/2000/svg" version="1.1" xmlns:xlink="http://www.w3.org/1999/xlink" xmlns:svgjs="http://svgjs.dev/svgjs" width="1000" height="623" viewBox="0 0 1000 623"><g transform="matrix(1,0,0,1,-0.6060606060606233,0.2522267206477409)"><svg viewBox="0 0 396 247" data-background-color="#ffffff" preserveAspectRatio="xMidYMid meet" height="623" width="1000" xmlns="http://www.w3.org/2000/svg" xmlns:xlink="http://www.w3.org/1999/xlink"><g id="tight-bounds" transform="matrix(1,0,0,1,0.2400000000000091,-0.09999999999999432)"><svg viewBox="0 0 395.52 247.2" height="247.2" width="395.52"><g><svg></svg></g><g><svg viewBox="0 0 395.52 247.2" height="247.2" width="395.52"><g transform="matrix(1,0,0,1,145.7013559322034,65.92)"><svg viewBox="0 0 104.11728813559321 115.35999999999999" height="115.35999999999999" width="104.11728813559321"><g><svg viewBox="0 0 104.11728813559321 115.35999999999999" height="115.35999999999999" width="104.11728813559321"><g><svg viewBox="0 0 104.11728813559321 115.35999999999999" height="115.35999999999999" width="104.11728813559321"><g><svg viewBox="0 0 104.11728813559321 115.35999999999999" height="115.35999999999999" width="104.11728813559321"><g><svg viewBox="0 0 104.11728813559321 115.35999999999999" height="115.35999999999999" width="104.11728813559321"><g transform="matrix(1,0,0,1,0,0)"><svg width="104.11728813559321" viewBox="3 -35.4 31.950000000000003 35.4" height="115.35999999999999" data-palette-color="#2c3ef8"><path d="M15 0L4 0 4-27.35 3-32.4 4-35.4 22-35.4Q26.05-35.4 28.95-34.1 31.85-32.8 33.4-29.93 34.95-27.05 34.95-22.35L34.95-22.35Q34.95-15.3 31.18-12.23 27.4-9.15 20.5-9.15L20.5-9.15 15-9.15 15-8.05 15.5-3.05 15 0ZM14.5-25.9L15-18.5 17.9-18.5Q19.65-18.5 20.93-18.65 22.2-18.8 22.9-19.58 23.6-20.35 23.6-22.1L23.6-22.1Q23.6-23.95 22.85-24.75 22.1-25.55 20.78-25.73 19.45-25.9 17.7-25.9L17.7-25.9 14.5-25.9Z" opacity="1" transform="matrix(1,0,0,1,0,0)" fill="#2c3ef8" class="undefined-text-0" data-fill-palette-color="primary" id="text-0"></path></svg></g></svg></g></svg></g></svg></g><g></g></svg></g></svg></g><g mask="url(#97c0bcc4-4282-4c74-993e-d7ec55776ed8)"><g transform="matrix(3.1844155844155844, 0, 0, 3.1844155844155844, 58.60103896103894, 1)"><svg xmlns="http://www.w3.org/2000/svg" xmlns:xlink="http://www.w3.org/1999/xlink" version="1.1" x="0" y="0" viewBox="6.3 11.5 87.4 77" style="enable-background:new 0 0 100 100;" xml:space="preserve" height="77" width="87.4" class="icon-none" data-fill-palette-color="accent" id="none"><path d="M72.3 12.3L72.3 12.3 72.3 12.3l-0.4-0.8H28.2L6.3 50l21.8 38.5h43.7L93.7 50 72.3 12.3zM33.3 25.3L9.9 47.7l18.6-32.8L33.3 25.3zM70.7 14.8l6.4 35.7L36.9 25.8 70.7 14.8zM35.5 27.3l41 25.2-41 23.3V27.3zM77 54.5l-7.2 30.8-32.6-8.1L77 54.5zM33.5 75L9.9 50.5l23.6-22.7V75zM33.2 77.6l-4.6 7.7L11.5 55.1 33.2 77.6zM35 78.6l31.4 7.9H30.2L35 78.6zM79.3 53.3l11.6-2.5L72.1 84 79.3 53.3zM90.7 48.9l-11.4 2.5-5.9-33.1L90.7 48.9zM35 24.3l-5-10.8h38.2L35 24.3z" fill="#1a47ee" data-fill-palette-color="accent"></path></svg></g></g></svg></g><defs><mask id="97c0bcc4-4282-4c74-993e-d7ec55776ed8"><rect width="640" height="400" fill="white"></rect><rect width="114.52901694915255" height="169.82745472" fill="black" x="262.73549152542375" y="115.08627264" id="transform-me" transform="matrix(1,0,0,1,-122.24000000000001,-76.4)"></rect></mask></defs></svg><rect width="395.52" height="247.2" fill="none" stroke="none" visibility="hidden"></rect></g></svg></g></svg>